<mxfile host="app.diagrams.net" modified="2023-09-26T08:03:21.525Z" agent="Mozilla/5.0 (Windows NT 10.0; Win64; x64) AppleWebKit/537.36 (KHTML, like Gecko) Chrome/117.0.0.0 Safari/537.36" version="21.8.2" etag="DjSwbuucTT5d7_Wd7v0Q" type="github">
  <diagram name="Page-1" id="RlmEmpo5elgQ4JokeiOO">
    <mxGraphModel>
      <root>
        <mxCell id="0" />
        <mxCell id="1" parent="0" />
      </root>
    </mxGraphModel>
  </diagram>
</mxfile>
